<?xml version="1.0" encoding="utf-8"?>
<!-- Generator: Adobe Illustrator 24.1.0, SVG Export Plug-In . SVG Version: 6.00 Build 0)  -->
<svg version="1.1" id="Capa_1" xmlns="http://www.w3.org/2000/svg" xmlns:xlink="http://www.w3.org/1999/xlink" x="0px" y="0px"
	 viewBox="0 0 310 172" style="enable-background:new 0 0 310 172;" xml:space="preserve">
<style type="text/css">
	.st0{fill-rule:evenodd;clip-rule:evenodd;fill:#DE0512;}
	.st1{fill:#1C1C1A;}
	.st2{fill-rule:evenodd;clip-rule:evenodd;fill:#1C1C1A;}
</style>
<polygon class="st0" points="200.92,39.32 209.91,20 230.16,20 212.3,39.32 "/>
<g>
	<path class="st1" d="M40.36,128.92h-1.87c-0.27,0-0.49,0.22-0.49,0.49v5.45H26.06v-5.45c0-0.27-0.22-0.49-0.49-0.49h-1.87
		c-0.27,0-0.49,0.22-0.49,0.49v14.06c0,0.27,0.22,0.49,0.49,0.49h1.87c0.27,0,0.49-0.22,0.49-0.49v-5.98H38v5.98
		c0,0.27,0.22,0.49,0.49,0.49h1.87c0.27,0,0.49-0.22,0.49-0.49v-14.06C40.85,129.14,40.63,128.92,40.36,128.92z"/>
	<path class="st1" d="M49.63,128.92h-1.88c-0.27,0-0.49,0.22-0.49,0.49v14.06c0,0.27,0.22,0.49,0.49,0.49h1.88
		c0.27,0,0.49-0.22,0.49-0.49v-14.06C50.13,129.14,49.91,128.92,49.63,128.92z"/>
	<path class="st1" d="M71.62,129.64c-0.43-0.3-0.92-0.49-1.44-0.56c-0.48-0.06-1.76-0.11-4.29-0.17H57c-0.27,0-0.49,0.22-0.49,0.49
		v14.06c0,0.27,0.22,0.49,0.49,0.49h1.87c0.27,0,0.49-0.22,0.49-0.49v-4.8l7.41,0c0.94-0.01,1.52-0.01,1.76-0.02
		c0.92-0.03,1.58-0.1,2.02-0.23c0.47-0.13,0.93-0.38,1.37-0.75c0.44-0.38,0.76-0.89,0.94-1.53c0.18-0.6,0.27-1.4,0.27-2.38
		c0-1.29-0.17-2.26-0.51-2.96C72.41,130.34,72.07,129.96,71.62,129.64z M70.23,133.82c0,0.61-0.04,1.05-0.11,1.33
		c-0.06,0.22-0.15,0.38-0.27,0.49c-0.22,0.18-0.49,0.28-0.82,0.32c-0.47,0.06-1.93,0.08-3.14,0.08h-6.53v-4.5h6.52
		c2.27,0.04,3,0.1,3.21,0.12c0.33,0.04,0.59,0.14,0.8,0.29c0.12,0.1,0.2,0.23,0.25,0.42C70.18,132.57,70.23,132.98,70.23,133.82z"/>
	<path class="st1" d="M93.01,141.33H81.59v-3.85h10.89c0.27,0,0.49-0.22,0.49-0.49v-1.64c0-0.27-0.22-0.49-0.49-0.49H81.59v-3.31
		h11.4c0.27,0,0.49-0.22,0.49-0.49v-1.64c0-0.27-0.22-0.49-0.49-0.49H79.23c-0.27,0-0.49,0.22-0.49,0.49v14.06
		c0,0.27,0.22,0.49,0.49,0.49h13.78c0.27,0,0.49-0.22,0.49-0.49v-1.64C93.5,141.55,93.28,141.33,93.01,141.33z"/>
	<path class="st1" d="M112.99,129.09c-0.68-0.09-2.24-0.15-4.62-0.18h-8.76c-0.27,0-0.49,0.22-0.49,0.49v14.06
		c0,0.27,0.22,0.49,0.49,0.49h1.88c0.27,0,0.49-0.22,0.49-0.49v-4.9h6.39c1.56,0.01,2.48,0.01,2.76,0.02
		c0.26,0.01,0.55,0.04,0.85,0.08c0.66,0.12,1,0.47,1.1,1.13c0.03,0.29,0.07,0.93,0.07,2.32v1.35c0,0.27,0.22,0.49,0.49,0.49h1.87
		c0.27,0,0.49-0.22,0.49-0.49v-1.99c0-1.2-0.04-2.02-0.12-2.46c-0.09-0.48-0.31-0.91-0.65-1.28c-0.12-0.13-0.26-0.24-0.4-0.34
		c0.27-0.15,0.5-0.34,0.69-0.55c0.28-0.32,0.48-0.73,0.59-1.23c0.1-0.44,0.15-1.07,0.15-1.96c0-1.13-0.16-2.05-0.49-2.72
		C115.25,129.88,114.31,129.27,112.99,129.09z M113.36,133.62c0,1.39-0.31,1.8-0.5,1.92c-0.26,0.17-0.6,0.27-1.04,0.31
		c-0.47,0.05-1.56,0.08-3.46,0.08h-6.39v-4.39h6.39c1.63,0,2.81,0.03,3.42,0.09c0.65,0.07,0.97,0.21,1.12,0.32
		C113.11,132.1,113.36,132.51,113.36,133.62z"/>
	<path class="st1" d="M137.43,129.64c-0.43-0.3-0.92-0.49-1.44-0.56c-0.47-0.06-1.75-0.11-4.28-0.17h-8.9
		c-0.27,0-0.49,0.22-0.49,0.49v14.06c0,0.27,0.22,0.49,0.49,0.49h1.88c0.27,0,0.49-0.22,0.49-0.49v-4.8l7.41,0
		c0.93-0.01,1.51-0.01,1.75-0.02c0.92-0.03,1.58-0.1,2.02-0.23c0.47-0.13,0.93-0.38,1.37-0.75c0.44-0.38,0.76-0.9,0.95-1.53
		c0.17-0.59,0.26-1.39,0.26-2.38c0-1.3-0.16-2.27-0.5-2.96C138.21,130.34,137.87,129.95,137.43,129.64z M136.03,133.82
		c0,0.61-0.04,1.06-0.11,1.34c-0.05,0.22-0.15,0.38-0.28,0.49c-0.21,0.17-0.48,0.28-0.81,0.31c-0.47,0.06-1.93,0.08-3.14,0.08h-6.53
		v-4.5h6.52c1.58,0.03,2.78,0.08,3.2,0.12c0.34,0.04,0.6,0.14,0.8,0.29c0.12,0.1,0.2,0.23,0.25,0.43
		C136,132.64,136.03,133.13,136.03,133.82z"/>
	<path class="st1" d="M146.9,128.92h-1.87c-0.27,0-0.49,0.22-0.49,0.49v14.06c0,0.27,0.22,0.49,0.49,0.49h1.87
		c0.27,0,0.49-0.22,0.49-0.49v-14.06C147.4,129.14,147.17,128.92,146.9,128.92z"/>
	<path class="st1" d="M171.99,128.92h-1.87c-0.27,0-0.49,0.22-0.49,0.49v11.57l-11.89-11.92c-0.09-0.09-0.22-0.14-0.35-0.14h-3.13
		c-0.27,0-0.49,0.22-0.49,0.49v14.06c0,0.27,0.22,0.49,0.49,0.49h1.88c0.27,0,0.49-0.22,0.49-0.49v-11.51l11.84,11.86
		c0.09,0.09,0.22,0.14,0.35,0.14h3.18c0.27,0,0.49-0.22,0.49-0.49v-14.06C172.48,129.14,172.26,128.92,171.99,128.92z"/>
	<path class="st1" d="M194.25,128.92H178.3c-0.27,0-0.49,0.22-0.49,0.49v1.64c0,0.27,0.22,0.49,0.49,0.49h6.57v11.92
		c0,0.27,0.22,0.49,0.49,0.49h1.87c0.27,0,0.49-0.22,0.49-0.49v-11.92h6.53c0.27,0,0.49-0.22,0.49-0.49v-1.64
		C194.74,129.14,194.52,128.92,194.25,128.92z"/>
	<path class="st1" d="M217.02,128.92h-1.88c-0.27,0-0.49,0.22-0.49,0.49v6.91c-0.02,1.9-0.04,2.97-0.08,3.47
		c-0.03,0.6-0.18,0.86-0.26,0.96c-0.15,0.17-0.46,0.29-0.91,0.36c-0.91,0.15-2.63,0.22-5.11,0.22c-1.8,0-3.2-0.06-4.15-0.17
		c-0.46-0.06-0.82-0.18-0.99-0.34c-0.16-0.15-0.27-0.45-0.31-0.86c-0.03-0.28-0.06-1.14-0.06-3.63v-6.92c0-0.27-0.22-0.49-0.49-0.49
		h-1.87c-0.27,0-0.49,0.22-0.49,0.49v6.92c0.02,1.88,0.06,3.26,0.11,3.88c0.05,0.63,0.2,1.19,0.44,1.67
		c0.51,0.97,1.31,1.59,2.38,1.82c0.58,0.12,1.13,0.2,1.61,0.22c0.44,0.02,1.63,0.05,4.3,0.09c2.81-0.07,4.44-0.13,5.12-0.21
		c0.75-0.08,1.41-0.28,1.96-0.61c0.91-0.57,1.44-1.55,1.58-2.93c0.05-0.69,0.09-1.93,0.11-3.92v-6.92
		C217.51,129.14,217.29,128.92,217.02,128.92z"/>
	<path class="st1" d="M237.61,129.09c-0.68-0.09-2.23-0.15-4.62-0.18h-8.76c-0.27,0-0.49,0.22-0.49,0.49v14.06
		c0,0.27,0.22,0.49,0.49,0.49h1.87c0.27,0,0.49-0.22,0.49-0.49v-4.9H233c1.56,0.01,2.48,0.01,2.76,0.02
		c0.25,0.01,0.54,0.04,0.85,0.08c0.66,0.12,1.01,0.47,1.11,1.14c0.05,0.4,0.07,1.16,0.07,2.31v1.35c0,0.27,0.22,0.49,0.49,0.49h1.88
		c0.27,0,0.49-0.22,0.49-0.49v-1.99c0-1.19-0.04-2.02-0.12-2.46c-0.09-0.48-0.3-0.91-0.65-1.28c-0.12-0.12-0.26-0.24-0.4-0.34
		c0.27-0.15,0.5-0.34,0.69-0.55c0.29-0.32,0.49-0.74,0.59-1.24c0.09-0.45,0.14-1.09,0.14-1.96c0-1.14-0.16-2.05-0.49-2.72
		C239.88,129.88,238.94,129.27,237.61,129.09z M237.99,133.62c0,1.44-0.35,1.82-0.5,1.92c-0.26,0.17-0.6,0.27-1.04,0.31
		c-0.47,0.05-1.57,0.08-3.45,0.08h-6.4v-4.39h6.4c1.62,0,2.81,0.03,3.41,0.09c0.65,0.07,0.97,0.21,1.12,0.31
		C237.83,132.16,237.99,132.76,237.99,133.62z"/>
	<path class="st1" d="M257.55,129.17c-0.09-0.15-0.25-0.25-0.43-0.25h-2.99c-0.18,0-0.34,0.09-0.43,0.25l-7.97,14.06
		c-0.09,0.15-0.08,0.34,0,0.49c0.09,0.15,0.25,0.24,0.42,0.24h2.12c0.18,0,0.34-0.09,0.43-0.25l1.54-2.72h10.78l1.53,2.72
		c0.09,0.16,0.25,0.25,0.43,0.25h2.08c0.17,0,0.34-0.09,0.42-0.24c0.09-0.15,0.09-0.34,0-0.49L257.55,129.17z M255.77,131.54
		l3.82,6.81h-7.88l3.88-6.81H255.77z"/>
	<path class="st1" d="M286.06,136.6c-0.41-0.54-0.93-0.92-1.55-1.12c-0.57-0.2-1.38-0.31-2.48-0.31l-4.58-0.02
		c-1.77-0.02-2.96-0.12-3.54-0.31c-0.32-0.1-0.52-0.23-0.61-0.38c-0.07-0.13-0.16-0.43-0.16-1.11c0-0.56,0.1-0.96,0.29-1.14
		c0.14-0.13,0.53-0.38,1.58-0.55c0.87-0.14,2.18-0.2,4.02-0.2c1.42,0,2.49,0.08,3.19,0.23c0.58,0.12,0.98,0.32,1.12,0.56
		c0.04,0.06,0.15,0.3,0.15,1.12v0.21c0,0.27,0.22,0.49,0.49,0.49h1.87c0.13,0,0.26-0.05,0.35-0.15c0.09-0.09,0.14-0.22,0.14-0.35
		c-0.01-0.96-0.1-1.66-0.27-2.15c-0.18-0.52-0.5-0.97-0.97-1.35c-0.55-0.45-1.28-0.75-2.24-0.93c-0.91-0.17-2.17-0.25-3.76-0.25
		c-1.72,0-3.22,0.08-4.47,0.23c-0.78,0.09-1.41,0.22-1.87,0.38c-0.46,0.16-0.89,0.4-1.29,0.72c-0.82,0.67-1.24,1.72-1.24,3.14
		c0,1.25,0.26,2.21,0.78,2.86c0.44,0.55,1.06,0.95,1.86,1.2c0.75,0.23,1.71,0.34,2.94,0.34c3.6,0,5.56,0.02,6.13,0.03
		c0.56,0.02,1.02,0.09,1.32,0.19c0.23,0.08,0.38,0.21,0.47,0.39c0.08,0.17,0.17,0.5,0.17,1.16c0,1.24-0.52,1.51-0.97,1.61
		c-0.86,0.19-2.34,0.29-4.4,0.29c-3.68,0-4.67-0.19-4.93-0.3c-0.28-0.12-0.35-0.25-0.38-0.34c-0.04-0.12-0.12-0.46-0.14-1.47
		c0-0.04-0.01-0.13-0.01-0.26c0-0.27-0.22-0.49-0.49-0.49h-1.82c-0.27,0-0.49,0.21-0.49,0.48l-0.01,0.63c0,0.98,0.11,1.72,0.34,2.24
		c0.24,0.55,0.67,1.01,1.29,1.36c0.48,0.28,1.13,0.47,1.93,0.56c0.76,0.1,1.94,0.14,3.51,0.14c3.02,0,5.06-0.12,6.22-0.36
		c1.27-0.26,2.17-0.8,2.65-1.6c0.4-0.67,0.6-1.54,0.6-2.67C286.8,138.18,286.56,137.28,286.06,136.6z"/>
</g>
<path class="st2" d="M285.5,83.21c-1.83-2.97-4.37-5.31-7.61-7.02c-3.24-1.71-8.24-3.37-15.01-4.98c-6.76-1.6-11.03-3.14-12.78-4.63
	c-1.38-1.17-2.06-2.57-2.06-4.21c0-1.8,0.73-3.23,2.19-4.31c2.27-1.66,5.42-2.5,9.44-2.5c3.9,0,6.81,0.78,8.76,2.34
	c1.95,1.56,3.17,4.21,3.77,7.77h13.83c-0.22-6.4-2.31-12.09-6.68-15.93c-4.37-3.84-10.87-5.76-19.5-5.76
	c-5.29,0-9.81,0.8-13.55,2.41c-3.73,1.6-6.6,3.94-8.58,7.01c-1.05,1.62-1.81,3.3-2.3,5.04c2.52,4.89,4.09,10.86,4.7,17.86
	c0.31,0.32,0.61,0.64,0.95,0.94c3,2.71,8.22,4.99,15.66,6.85c5.78,1.44,9.49,2.46,11.11,3.02c2.37,0.84,4.04,1.84,4.99,2.99
	c0.95,1.14,1.43,2.53,1.43,4.16c0,2.54-1.13,4.76-3.4,6.66c-2.27,1.9-5.64,2.84-10.12,2.84c-4.22,0-7.58-1.07-10.07-3.2
	c-2.49-2.13-3.95-4.02-4.76-8.56h-6.54c-0.77,4.06-2.13,7.85-3.96,11.17c1.35,2.44,3.05,4.56,5.09,6.32
	c4.68,4.02,11.38,6.03,20.11,6.03c5.99,0,11-0.84,15.01-2.52c4.02-1.68,7.13-4.25,9.33-7.7c2.19-3.46,3.29-7.16,3.29-11.12
	C288.25,89.84,287.33,86.18,285.5,83.21"/>
<path class="st2" d="M191.78,44.03h-83.23H87.13h-8.46v36.49L64.05,44.03H49.04l-27.28,70.24H36.8l5.83-15.99h28.18l6.07,15.99h1.79
	h13.52h0.71V84.94h2.88c3.26,0,5.66,0.27,7.17,0.79c1.5,0.52,2.93,1.49,4.27,2.91c1.35,1.42,3.85,4.85,7.51,10.3l10.16,15.33h16.96
	l-8.58-13.71c-3.37-5.46-6.04-9.27-8.03-11.41c-1.99-2.14-4.51-4.1-7.56-5.9c6.15-0.89,10.76-3.06,13.85-6.49
	c3.09-3.43,4.63-7.79,4.63-13.05c0-2.82-0.47-5.43-1.42-7.82h12.32v58.37h14.22V55.9h16.34c0.95-1.43,2-2.77,3.15-4.02
	C184.01,48.4,187.68,45.78,191.78,44.03 M46.96,86.41l9.48-25.99l9.77,25.99H46.96z M120.11,69.92c-0.96,1.41-2.29,2.4-3.98,2.97
	c-1.69,0.58-5.94,0.87-12.74,0.87H92.91V55.9h11.06c5.75,0,9.2,0.08,10.34,0.23c2.3,0.39,4.08,1.31,5.34,2.76
	c1.26,1.46,1.89,3.37,1.89,5.74C121.55,66.75,121.07,68.5,120.11,69.92"/>
<path class="st0" d="M219.82,73.91c-0.13-5.25-1.48-9.24-4.06-11.98c-2.58-2.73-5.72-4.1-9.41-4.1c-3.95,0-7.22,1.44-9.8,4.33
	c-2.58,2.88-3.84,6.8-3.8,11.75H219.82z M219.53,90.52h17.5c-1.5,9.28-6.14,16.38-11.16,19.85c-5.01,3.45-11.29,5.18-18.83,5.18
	c-11.92,0-20.75-3.89-26.48-11.67c-4.52-6.23-6.78-14.1-6.78-23.59c0-11.35,2.97-20.23,8.91-26.66c5.94-6.43,13.45-9.64,22.53-9.64
	c10.2,0,18.25,3.36,24.14,10.08c5.9,6.72,8.72,17.02,8.46,30.9h-45.39c0.13,5.37,1.59,9.54,4.38,12.52
	c2.79,2.99,6.27,4.48,10.42,4.48c2.83,0,5.21-0.77,7.14-2.31C216.31,98.13,218.5,94.46,219.53,90.52"/>
</svg>
